#!OML:ASF E:/inclinewalkrobotboard/Project1/Captureday1/Session1/subject1.ASF
:FULLY-SPECIFIED
:DEGREES
251
root 0 0 0 -2.907150966571469 -0.9121124691384812 2.806236296510231
lowerback 11.489149911225983 -0.8891915320017857 -3.8014242770447906
upperback 0.8258353354140603 -1.5633779072628327 1.128138453862811
thorax -5.478083661382482 -0.6620048433888441 3.548226524448682
lowerneck -17.598086610678962 -2.5829455183639216 -2.4053149904786806
upperneck 17.549422898440625 -2.943233631476907 0.2684752781898596
head 8.420912130509844 -1.5546269367294816 0.11767564413037346
rclavicle 2.182161749924306E-15 -7.424357345689274E-16
rhumerus -31.456594072454358 -22.959262336326347 -76.19112275907912
rradius 26.451130671447856
rwrist 2.6427225422740213
rhand -18.89505342740995 22.956718582497192
rfingers 7.125020000000023
rthumb 7.407558842671311 -6.961160738317705
lclavicle 6.239588278704107E-16 -4.525690083359929E-16
lhumerus -26.515246316698434 -4.980259162810364 82.70194167391739
lradius 31.272706777826386
lwrist 7.144741520572639
lhand -27.97071602413442 24.826826737253622
lfingers 7.125020000000005
lthumb -1.3473100995137468 54.816346603404526
rfemur -33.03429303034487 0.8368004140126932 19.914780397571867
rtibia 52.84333193186724
rfoot -7.256701722738724 -10.835862127204784
rtoes 0.8180139204065395
lfemur 5.8977347763077175 -3.070776546475516 -28.647006833305895
ltibia 21.761773701282088
lfoot -17.647343812275523 0.6179810749001287
ltoes 0.8237583405424047
252
root 0 0 0 -1.7831551407148234 0.020337394751355653 3.208176395572314
lowerback 10.446578312500714 -1.3673734585546757 -4.589149461826933
upperback 0.6082844162496399 -2.2755599090720064 1.2753169453686075
thorax -5.051414995241548 -1.0026682072923163 4.238048767394011
lowerneck -17.575637918606528 -2.47900835080889 -2.2750322326438517
upperneck 18.68975580671286 -2.8118758510789794 0.05683952723016028
head 8.79626773185823 -1.4760399604718684 0.03448330912956424
rclavicle 3.400210119075849E-15 -1.0197455943670492E-15
rhumerus -31.73756362504327 -23.43551703116786 -76.07222657985531
rradius 26.05471935640123
rwrist 2.928920179197452
rhand -18.855536134590864 22.883824050493278
rfingers 7.125020000000022
rthumb 7.446652577510696 -7.039598690363132
lclavicle 2.45724988573463E-15 -6.890427874017122E-16
lhumerus -24.631862574037278 -5.6250075115503435 82.14892441966873
lradius 31.94358730197764
lwrist 7.382055041122127
lhand -28.10554688928657 25.024186322713405
lfingers 7.125020000000001
lthumb -1.4807034636261545 55.01531932842603
rfemur -38.21161432215573 4.083568570104239 18.419903042824643
rtibia 36.03360868746265
rfoot -7.8731335699920475 -15.6127006653137
rtoes -3.886449764051605
lfemur 9.167703812864822 -2.931481035372319 -29.61297521598997
ltibia 19.79436274406008
lfoot -18.129237193477223 0.14062311078016831
ltoes 2.351409487448869
253
root 0 0 0 -1.4776322044225145 0.377394757940265 3.110062026000613
lowerback 10.210152766423747 -1.4835470082453326 -4.741006415941667
upperback 0.47721830738839166 -2.4320675307691744 1.3634896472542661
thorax -5.054407700092831 -1.0788890320569815 4.43207076367338
lowerneck -17.364862465186867 -2.473471138390857 -2.096165814914105
upperneck 19.956953561231558 -2.8191244586202977 -0.2078253627796125
head 9.211725516977225 -1.4786804974149035 -0.08842627978211764
rclavicle 4.03861557460815E-15 -1.084020154813258E-15
rhumerus -32.17759215801232 -24.067391088785328 -75.92129216905015
rradius 25.552695135089998
rwrist 3.2239116105043832
rhand -18.83878171214292 22.683978850723665
rfingers 7.125020000000021
rthumb 7.463813908389612 -7.243767358343689
lclavicle 3.24762198493766E-15 -6.946873051209798E-16
lhumerus -24.14189410863051 -5.591668745533159 81.86785567444734
lradius 32.02877980953883
lwrist 7.463162946794963
lhand -28.12674048688355 25.146358246055392
lfingers 7.125020000000002
lthumb -1.5033249229796937 55.139188953959504
rfemur -33.585323973005664 7.06005520953277 19.44801627481084
rtibia 20.263498522012757
rfoot -8.716627300732753 -15.418530939276897
rtoes -4.477763783026525
lfemur 11.046794312768505 -3.214115821457172 -29.71873159482883
ltibia 19.663699598159283
lfoot -17.60988521815504 -0.7146556245851037
ltoes 1.989804945821838
254
root 0 0 0 -1.437810655741739 0.45569040254488025 2.8370715248708582
lowerback 10.189128353342587 -1.512402740920976 -4.557763160870594
upperback 0.4236759276118809 -2.4446226209474453 1.449339053366299
thorax -5.097752258584023 -1.0880558363971158 4.419921840896136
lowerneck -17.34068581432739 -2.457207909633822 -2.0007348409821577
upperneck 20.254203791587337 -2.7876332677053415 -0.38815316696325364
head 9.309637944706502 -1.47683854438662 -0.16281901409758343
rclavicle 3.0656731006065668E-15 -9.51128871453109E-16
rhumerus -32.55077165476425 -24.672603296726002 -75.70477577584415
rradius 25.188980917154943
rwrist 3.4691595235825092
rhand -18.857542104909157 22.44787570290537
rfingers 7.125020000000019
rthumb 7.44531505352545 -7.488264283090263
lclavicle 2.2112318294997655E-15 -5.335109127651019E-16
lhumerus -24.318235472281653 -5.204770232118003 81.67823013885857
lradius 31.758025612822628
lwrist 7.3709804322025185
lhand -28.078631400883538 25.514661325004592
lfingers 7.125020000000003
lthumb -1.456359671970711 55.5049424724737
rfemur -29.240391955379167 8.016232173252037 19.425199217417642
rtibia 14.101144831151199
rfoot -7.717477113848476 -13.605198563341778
rtoes -4.757188660086179
lfemur 13.580302456167562 -3.438170166588585 -29.521968096348928
ltibia 20.309008498329256
lfoot -15.342442999797052 -3.0085101678239075
ltoes -0.13034963130898447
255
root 0 0 0 -1.451551034101688 0.4973528938705081 2.083308087401137
lowerback 10.276958512600915 -1.5665158502989405 -4.00336628373654
upperback 0.40157020051119274 -2.437621736367154 1.6696380151021324
thorax -5.1672571204163935 -1.0955291993457275 4.338613236269578
lowerneck -17.393091353445435 -2.4175806543027627 -1.904388584587243
upperneck 20.08148193501996 -2.730147909027237 -0.5076491954670883
head 9.263100721727977 -1.4564352602795743 -0.2114888218969081
rclavicle 2.358948633983766E-15 -1.3707204422815623E-15
rhumerus -32.837256718652355 -25.24202908306507 -75.50582685692483
rradius 24.734716707109925
rwrist 3.871390743715808
rhand -18.82831309339997 22.309237353931
rfingers 7.125020000000018
rthumb 7.473424374213177 -7.632865969090613
lclavicle 1.402435890306414E-15 -8.56784333746181E-16
lhumerus -24.90032267533398 -4.66567892228716 81.6095671001759
lradius 31.376227926889854
lwrist 7.217912935868824
lhand -27.98319717530094 25.843011192177645
lfingers 7.125020000000005
lthumb -1.3630623435189424 55.829921947699205
rfemur -26.779061158935733 6.880928554116599 19.46912221967257
rtibia 19.24311294591094
rfoot -6.2326654539303545 -10.86058298989437
rtoes -2.555782530709471
lfemur 16.16542911197718 -3.5832039428450937 -28.786402213992897
ltibia 22.549515822444224
lfoot -10.647264679532913 -6.537700879677475
ltoes -4.242927594278196
256
root 0 0 0 -1.5114057907832237 0.6227646010474355 -0.07745415031302416
lowerback 10.54953688464482 -1.7423522640089724 -2.40440657864868
upperback 0.3935138741738443 -2.440607888204796 2.300154819574593
thorax -5.323025002287846 -1.1302053234328948 4.101251180578265
lowerneck -17.484064231487885 -2.3476106551418825 -1.696225158963955
upperneck 19.402193047823136 -2.6393185902271203 -0.6745917898260518
head 9.054927113510372 -1.4177604243311994 -0.2870555070248107
rclavicle 2.1451018699283996E-15 -1.8575049084798696E-15
rhumerus -33.0086560812309 -25.63359259353343 -75.3776850286416
rradius 24.29500079159544
rwrist 4.269746481330858
rhand -18.759804213786268 22.261979726235666
rfingers 7.125020000000017
rthumb 7.539809436501002 -7.678738710640307
lclavicle 1.0892593658873896E-15 -1.2417869385999582E-15
lhumerus -26.095917499191717 -4.008755968539625 81.81808531874343
lradius 30.911201573158543
lwrist 7.073258781236438
lhand -27.85959824112427 25.757175972304715
lfingers 7.125020000000008
lthumb -1.2435050897782043 55.740210446424506
rfemur -22.382983953361965 4.90526068204408 21.519397200817878
rtibia 30.216276126961937
rfoot -5.828006128438886 -6.4951433539261725
rtoes 3.8706112078157258
lfemur 16.02457222761316 -3.7275062070221843 -25.813104720905613
ltibia 32.14228843318216
lfoot -0.8442384320572938 -11.7099407386755
ltoes -11.839493208258862
257
root 0 0 0 -1.9718732075946432 0.6105974850641904 -2.4501003784399424
lowerback 10.622875600133202 -1.821387254507858 -0.5224967783699852
upperback 0.6003620946706303 -2.2805342122662458 2.9742925913501583
thorax -5.171690340797577 -1.0876732520651955 3.7337441756407737
lowerneck -17.085757214812862 -2.331082935301945 -1.5494184933399318
upperneck 20.108403174771375 -2.6388347144856805 -0.7337203509153747
head 9.203804806686055 -1.4117026505003782 -0.3365816397541677
rclavicle 2.3513930028897178E-15 -2.939270738161093E-15
rhumerus -32.94225604276124 -25.665162957203332 -75.37930412470868
rradius 24.04939395212429
rwrist 4.543452926994662
rhand -18.657077946997433 22.313542542561237
rfingers 7.125020000000017
rthumb 7.639299486239198 -7.616618525614683
lclavicle 1.0111953830828002E-15 -2.4296993891982386E-15
lhumerus -28.842793712221205 -2.9630418786034 82.63318259155977
lradius 30.164802295846677
lwrist 6.930575949875154
lhand -27.59740491429065 24.98915309589692
lfingers 7.125020000000017
lthumb -0.9922994336079851 54.96167458673933
rfemur -20.271355011883003 4.907825127475807 23.507905560259267
rtibia 33.20750084451811
rfoot -6.693003331921292 -5.124599225777967
rtoes 8.415713523324534
lfemur 6.5462212270689415 -2.307078421551106 -19.02815350499067
ltibia 53.03837992043795
lfoot 16.13360738961356 -19.855142409902932
ltoes -9.297925082718589
